<svg width="119" height="37" viewBox="0 0 119 37" fill="none" xmlns="http://www.w3.org/2000/svg">
<path d="M6.99 14.63C7.49 13.85 8.18 13.22 9.06 12.74C9.94 12.26 10.97 12.02 12.15 12.02C13.53 12.02 14.78 12.37 15.9 13.07C17.02 13.77 17.9 14.77 18.54 16.07C19.2 17.37 19.53 18.88 19.53 20.6C19.53 22.32 19.2 23.84 18.54 25.16C17.9 26.46 17.02 27.47 15.9 28.19C14.78 28.89 13.53 29.24 12.15 29.24C10.99 29.24 9.96 29 9.06 28.52C8.18 28.04 7.49 27.42 6.99 26.66V36.98H1.86V12.26H6.99V14.63ZM14.31 20.6C14.31 19.32 13.95 18.32 13.23 17.6C12.53 16.86 11.66 16.49 10.62 16.49C9.6 16.49 8.73 16.86 8.01 17.6C7.31 18.34 6.96 19.35 6.96 20.63C6.96 21.91 7.31 22.92 8.01 23.66C8.73 24.4 9.6 24.77 10.62 24.77C11.64 24.77 12.51 24.4 13.23 23.66C13.95 22.9 14.31 21.88 14.31 20.6ZM27.1263 6.8V29H21.9963V6.8H27.1263ZM29.599 20.6C29.599 18.88 29.919 17.37 30.559 16.07C31.219 14.77 32.109 13.77 33.229 13.07C34.349 12.37 35.599 12.02 36.979 12.02C38.159 12.02 39.189 12.26 40.069 12.74C40.969 13.22 41.659 13.85 42.139 14.63V12.26H47.269V29H42.139V26.63C41.639 27.41 40.939 28.04 40.039 28.52C39.159 29 38.129 29.24 36.949 29.24C35.589 29.24 34.349 28.89 33.229 28.19C32.109 27.47 31.219 26.46 30.559 25.16C29.919 23.84 29.599 22.32 29.599 20.6ZM42.139 20.63C42.139 19.35 41.779 18.34 41.059 17.6C40.359 16.86 39.499 16.49 38.479 16.49C37.459 16.49 36.589 16.86 35.869 17.6C35.169 18.32 34.819 19.32 34.819 20.6C34.819 21.88 35.169 22.9 35.869 23.66C36.589 24.4 37.459 24.77 38.479 24.77C39.499 24.77 40.359 24.4 41.059 23.66C41.779 22.92 42.139 21.91 42.139 20.63ZM60.0853 24.65V29H57.4753C55.6153 29 54.1653 28.55 53.1253 27.65C52.0853 26.73 51.5653 25.24 51.5653 23.18V16.52H49.5253V12.26H51.5653V8.18H56.6953V12.26H60.0553V16.52H56.6953V23.24C56.6953 23.74 56.8153 24.1 57.0553 24.32C57.2953 24.54 57.6953 24.65 58.2553 24.65H60.0853ZM71.1178 16.52H68.3578V29H63.2278V16.52H61.3678V12.26H63.2278V11.78C63.2278 9.72 63.8178 8.16 64.9978 7.1C66.1778 6.02 67.9078 5.48 70.1878 5.48C70.5678 5.48 70.8478 5.49 71.0278 5.51V9.86C70.0478 9.8 69.3578 9.94 68.9578 10.28C68.5578 10.62 68.3578 11.23 68.3578 12.11V12.26H71.1178V16.52ZM101.901 12.08C103.861 12.08 105.421 12.72 106.581 14C107.761 15.26 108.351 17 108.351 19.22V29H103.251V19.91C103.251 18.79 102.961 17.92 102.381 17.3C101.801 16.68 101.021 16.37 100.041 16.37C99.0606 16.37 98.2806 16.68 97.7006 17.3C97.1206 17.92 96.8306 18.79 96.8306 19.91V29H91.7006V12.26H96.8306V14.48C97.3506 13.74 98.0506 13.16 98.9306 12.74C99.8106 12.3 100.801 12.08 101.901 12.08Z" fill="white"/>
<path d="M114.09 29.24C113.19 29.24 112.45 28.98 111.87 28.46C111.31 27.92 111.03 27.26 111.03 26.48C111.03 25.68 111.31 25.01 111.87 24.47C112.45 23.93 113.19 23.66 114.09 23.66C114.97 23.66 115.69 23.93 116.25 24.47C116.83 25.01 117.12 25.68 117.12 26.48C117.12 27.26 116.83 27.92 116.25 28.46C115.69 28.98 114.97 29.24 114.09 29.24Z" fill="white"/>
<path d="M86.75 24.25L83.25 24.25" stroke="white" stroke-width="1.5" stroke-linecap="round" stroke-linejoin="round"/>
<path d="M85 26V22.5" stroke="white" stroke-width="1.5" stroke-linecap="round" stroke-linejoin="round"/>
<path d="M76.2587 23.375H76.25" stroke="white" stroke-width="1.5" stroke-linecap="round" stroke-linejoin="round"/>
<path d="M78.0087 23.375H78" stroke="white" stroke-width="1.5" stroke-linecap="round" stroke-linejoin="round"/>
<path d="M76.2587 25.125H76.25" stroke="white" stroke-width="1.5" stroke-linecap="round" stroke-linejoin="round"/>
<path d="M79.7587 25.125H79.75" stroke="white" stroke-width="1.5" stroke-linecap="round" stroke-linejoin="round"/>
<path d="M79.7587 23.375H79.75" stroke="white" stroke-width="1.5" stroke-linecap="round" stroke-linejoin="round"/>
<path d="M78.0087 25.125H78" stroke="white" stroke-width="1.5" stroke-linecap="round" stroke-linejoin="round"/>
<path d="M76.845 28.625L86.155 28.625C87.021 28.6248 87.8562 28.3035 88.4991 27.7233C89.142 27.1431 89.547 26.3452 89.6358 25.4837C89.641 25.4382 89.6445 25.3954 89.6506 25.3508C89.7215 24.761 90.25 20.351 90.25 19C90.25 18.3038 89.9734 17.6361 89.4812 17.1438C88.9889 16.6516 88.3212 16.375 87.625 16.375C86.75 16.375 86.3125 16.8125 85.875 17.25L85 19C84.6719 19.3282 83.9641 20.4999 83.5 20.5L79 20.5C78.5359 20.4999 77.5625 18.5625 77.5625 18.5625L77.125 17.25C76.6875 16.8125 76.25 16.375 75.375 16.375C74.6788 16.375 74.0111 16.6516 73.5188 17.1438C73.0266 17.6361 72.75 18.3038 72.75 19C72.75 20.3519 73.2785 24.761 73.3494 25.3508C73.3555 25.3945 73.359 25.4383 73.3643 25.4829C73.4528 26.3445 73.8577 27.1426 74.5006 27.723C75.1436 28.3034 75.9789 28.6248 76.845 28.625Z" stroke="white" stroke-width="1.5" stroke-linecap="round" stroke-linejoin="round"/>
</svg>
