<svg width="119" height="38" viewBox="0 0 119 38" fill="none" xmlns="http://www.w3.org/2000/svg">
<path d="M7.99 15.63C8.49 14.85 9.18 14.22 10.06 13.74C10.94 13.26 11.97 13.02 13.15 13.02C14.53 13.02 15.78 13.37 16.9 14.07C18.02 14.77 18.9 15.77 19.54 17.07C20.2 18.37 20.53 19.88 20.53 21.6C20.53 23.32 20.2 24.84 19.54 26.16C18.9 27.46 18.02 28.47 16.9 29.19C15.78 29.89 14.53 30.24 13.15 30.24C11.99 30.24 10.96 30 10.06 29.52C9.18 29.04 8.49 28.42 7.99 27.66V37.98H2.86V13.26H7.99V15.63ZM15.31 21.6C15.31 20.32 14.95 19.32 14.23 18.6C13.53 17.86 12.66 17.49 11.62 17.49C10.6 17.49 9.73 17.86 9.01 18.6C8.31 19.34 7.96 20.35 7.96 21.63C7.96 22.91 8.31 23.92 9.01 24.66C9.73 25.4 10.6 25.77 11.62 25.77C12.64 25.77 13.51 25.4 14.23 24.66C14.95 23.9 15.31 22.88 15.31 21.6ZM28.1263 7.8V30H22.9963V7.8H28.1263ZM30.599 21.6C30.599 19.88 30.919 18.37 31.559 17.07C32.219 15.77 33.109 14.77 34.229 14.07C35.349 13.37 36.599 13.02 37.979 13.02C39.159 13.02 40.189 13.26 41.069 13.74C41.969 14.22 42.659 14.85 43.139 15.63V13.26H48.269V30H43.139V27.63C42.639 28.41 41.939 29.04 41.039 29.52C40.159 30 39.129 30.24 37.949 30.24C36.589 30.24 35.349 29.89 34.229 29.19C33.109 28.47 32.219 27.46 31.559 26.16C30.919 24.84 30.599 23.32 30.599 21.6ZM43.139 21.63C43.139 20.35 42.779 19.34 42.059 18.6C41.359 17.86 40.499 17.49 39.479 17.49C38.459 17.49 37.589 17.86 36.869 18.6C36.169 19.32 35.819 20.32 35.819 21.6C35.819 22.88 36.169 23.9 36.869 24.66C37.589 25.4 38.459 25.77 39.479 25.77C40.499 25.77 41.359 25.4 42.059 24.66C42.779 23.92 43.139 22.91 43.139 21.63ZM61.0853 25.65V30H58.4753C56.6153 30 55.1653 29.55 54.1253 28.65C53.0853 27.73 52.5653 26.24 52.5653 24.18V17.52H50.5253V13.26H52.5653V9.18H57.6953V13.26H61.0553V17.52H57.6953V24.24C57.6953 24.74 57.8153 25.1 58.0553 25.32C58.2953 25.54 58.6953 25.65 59.2553 25.65H61.0853ZM72.1178 17.52H69.3578V30H64.2278V17.52H62.3678V13.26H64.2278V12.78C64.2278 10.72 64.8178 9.16 65.9978 8.1C67.1778 7.02 68.9078 6.48 71.1878 6.48C71.5678 6.48 71.8478 6.49 72.0278 6.51V10.86C71.0478 10.8 70.3578 10.94 69.9578 11.28C69.5578 11.62 69.3578 12.23 69.3578 13.11V13.26H72.1178V17.52ZM102.901 13.08C104.861 13.08 106.421 13.72 107.581 15C108.761 16.26 109.351 18 109.351 20.22V30H104.251V20.91C104.251 19.79 103.961 18.92 103.381 18.3C102.801 17.68 102.021 17.37 101.041 17.37C100.061 17.37 99.2806 17.68 98.7006 18.3C98.1206 18.92 97.8306 19.79 97.8306 20.91V30H92.7006V13.26H97.8306V15.48C98.3506 14.74 99.0506 14.16 99.9306 13.74C100.811 13.3 101.801 13.08 102.901 13.08Z" fill="#94A3B8"/>
<path d="M6.99 14.63C7.49 13.85 8.18 13.22 9.06 12.74C9.94 12.26 10.97 12.02 12.15 12.02C13.53 12.02 14.78 12.37 15.9 13.07C17.02 13.77 17.9 14.77 18.54 16.07C19.2 17.37 19.53 18.88 19.53 20.6C19.53 22.32 19.2 23.84 18.54 25.16C17.9 26.46 17.02 27.47 15.9 28.19C14.78 28.89 13.53 29.24 12.15 29.24C10.99 29.24 9.96 29 9.06 28.52C8.18 28.04 7.49 27.42 6.99 26.66V36.98H1.86V12.26H6.99V14.63ZM14.31 20.6C14.31 19.32 13.95 18.32 13.23 17.6C12.53 16.86 11.66 16.49 10.62 16.49C9.6 16.49 8.73 16.86 8.01 17.6C7.31 18.34 6.96 19.35 6.96 20.63C6.96 21.91 7.31 22.92 8.01 23.66C8.73 24.4 9.6 24.77 10.62 24.77C11.64 24.77 12.51 24.4 13.23 23.66C13.95 22.9 14.31 21.88 14.31 20.6ZM27.1263 6.8V29H21.9963V6.8H27.1263ZM29.599 20.6C29.599 18.88 29.919 17.37 30.559 16.07C31.219 14.77 32.109 13.77 33.229 13.07C34.349 12.37 35.599 12.02 36.979 12.02C38.159 12.02 39.189 12.26 40.069 12.74C40.969 13.22 41.659 13.85 42.139 14.63V12.26H47.269V29H42.139V26.63C41.639 27.41 40.939 28.04 40.039 28.52C39.159 29 38.129 29.24 36.949 29.24C35.589 29.24 34.349 28.89 33.229 28.19C32.109 27.47 31.219 26.46 30.559 25.16C29.919 23.84 29.599 22.32 29.599 20.6ZM42.139 20.63C42.139 19.35 41.779 18.34 41.059 17.6C40.359 16.86 39.499 16.49 38.479 16.49C37.459 16.49 36.589 16.86 35.869 17.6C35.169 18.32 34.819 19.32 34.819 20.6C34.819 21.88 35.169 22.9 35.869 23.66C36.589 24.4 37.459 24.77 38.479 24.77C39.499 24.77 40.359 24.4 41.059 23.66C41.779 22.92 42.139 21.91 42.139 20.63ZM60.0853 24.65V29H57.4753C55.6153 29 54.1653 28.55 53.1253 27.65C52.0853 26.73 51.5653 25.24 51.5653 23.18V16.52H49.5253V12.26H51.5653V8.18H56.6953V12.26H60.0553V16.52H56.6953V23.24C56.6953 23.74 56.8153 24.1 57.0553 24.32C57.2953 24.54 57.6953 24.65 58.2553 24.65H60.0853ZM71.1178 16.52H68.3578V29H63.2278V16.52H61.3678V12.26H63.2278V11.78C63.2278 9.72 63.8178 8.16 64.9978 7.1C66.1778 6.02 67.9078 5.48 70.1878 5.48C70.5678 5.48 70.8478 5.49 71.0278 5.51V9.86C70.0478 9.8 69.3578 9.94 68.9578 10.28C68.5578 10.62 68.3578 11.23 68.3578 12.11V12.26H71.1178V16.52ZM101.901 12.08C103.861 12.08 105.421 12.72 106.581 14C107.761 15.26 108.351 17 108.351 19.22V29H103.251V19.91C103.251 18.79 102.961 17.92 102.381 17.3C101.801 16.68 101.021 16.37 100.041 16.37C99.0606 16.37 98.2806 16.68 97.7006 17.3C97.1206 17.92 96.8306 18.79 96.8306 19.91V29H91.7006V12.26H96.8306V14.48C97.3506 13.74 98.0506 13.16 98.9306 12.74C99.8106 12.3 100.801 12.08 101.901 12.08Z" fill="#00E5FF"/>
<path d="M114.09 29.24C113.19 29.24 112.45 28.98 111.87 28.46C111.31 27.92 111.03 27.26 111.03 26.48C111.03 25.68 111.31 25.01 111.87 24.47C112.45 23.93 113.19 23.66 114.09 23.66C114.97 23.66 115.69 23.93 116.25 24.47C116.83 25.01 117.12 25.68 117.12 26.48C117.12 27.26 116.83 27.92 116.25 28.46C115.69 28.98 114.97 29.24 114.09 29.24Z" fill="black"/>
<path d="M86.75 24.25L83.25 24.25" stroke="white" stroke-width="1.5" stroke-linecap="round" stroke-linejoin="round"/>
<path d="M85 26V22.5" stroke="white" stroke-width="1.5" stroke-linecap="round" stroke-linejoin="round"/>
<path d="M76.2587 23.375H76.25" stroke="white" stroke-width="1.5" stroke-linecap="round" stroke-linejoin="round"/>
<path d="M78.0087 23.375H78" stroke="white" stroke-width="1.5" stroke-linecap="round" stroke-linejoin="round"/>
<path d="M76.2587 25.125H76.25" stroke="white" stroke-width="1.5" stroke-linecap="round" stroke-linejoin="round"/>
<path d="M79.7587 25.125H79.75" stroke="white" stroke-width="1.5" stroke-linecap="round" stroke-linejoin="round"/>
<path d="M79.7587 23.375H79.75" stroke="white" stroke-width="1.5" stroke-linecap="round" stroke-linejoin="round"/>
<path d="M78.0087 25.125H78" stroke="white" stroke-width="1.5" stroke-linecap="round" stroke-linejoin="round"/>
<path d="M76.845 28.625L86.155 28.625C87.021 28.6248 87.8562 28.3035 88.4991 27.7233C89.142 27.1431 89.547 26.3452 89.6358 25.4837C89.641 25.4382 89.6445 25.3954 89.6506 25.3508C89.7215 24.761 90.25 20.351 90.25 19C90.25 18.3038 89.9734 17.6361 89.4812 17.1438C88.9889 16.6516 88.3212 16.375 87.625 16.375C86.75 16.375 86.3125 16.8125 85.875 17.25L85 19C84.6719 19.3282 83.9641 20.4999 83.5 20.5L79 20.5C78.5359 20.4999 77.5625 18.5625 77.5625 18.5625L77.125 17.25C76.6875 16.8125 76.25 16.375 75.375 16.375C74.6788 16.375 74.0111 16.6516 73.5188 17.1438C73.0266 17.6361 72.75 18.3038 72.75 19C72.75 20.3519 73.2785 24.761 73.3494 25.3508C73.3555 25.3945 73.359 25.4383 73.3643 25.4829C73.4528 26.3445 73.8577 27.1426 74.5006 27.723C75.1436 28.3034 75.9789 28.6248 76.845 28.625Z" stroke="white" stroke-width="1.5" stroke-linecap="round" stroke-linejoin="round"/>
</svg>
